HIERARCHY
ROOT Hips
{
  OFFSET 1.44925e-005 102.336 -0.101585
  CHANNELS 6 Xposition Yposition Zposition Zrotation Xrotation Yrotation
  JOINT RightUpLeg
  {
    OFFSET -8.9458 -8.66707 0.101652
    CHANNELS 3 Zrotation Xrotation Yrotation
    JOINT RightLeg
    {
      OFFSET 0 -44.4227 1.3727
      CHANNELS 3 Zrotation Xrotation Yrotation
      JOINT RightFoot
      {
        OFFSET 0.253549 -42.0924 -1.46059
        CHANNELS 3 Zrotation Xrotation Yrotation
        JOINT RightToes
        {
          OFFSET 0.04 -4.41509 8.4991
          CHANNELS 3 Zrotation Xrotation Yrotation
          End Site
          {
            OFFSET -0.08 -0.137448 9.77979
          }
        }
      }
    }
  }
  JOINT Spine
  {
    OFFSET 0 11.8905 0
    CHANNELS 3 Zrotation Xrotation Yrotation
    JOINT Spine1
    {
      OFFSET 0 25.6574 0.127663
      CHANNELS 3 Zrotation Xrotation Yrotation
      JOINT HEad
      {
        OFFSET 0 8.73416 0.011341
        CHANNELS 3 Zrotation Xrotation Yrotation
        End Site
        {
          OFFSET -0.29 12.7742 2.51395
        }
      }
      JOINT LeftShoulder1
      {
        OFFSET 8.99 -0.362252 -0.22
        CHANNELS 3 Zrotation Xrotation Yrotation
        JOINT LeftArm
        {
          OFFSET 10.2827 -0.00337999 0.322123
          CHANNELS 3 Zrotation Xrotation Yrotation
          JOINT LeftForeArm
          {
            OFFSET 26.2597 0.099144 -1.42434
            CHANNELS 3 Zrotation Xrotation Yrotation
            JOINT LeftHand
            {
              OFFSET 22.0902 0.085362 1.02216
              CHANNELS 3 Zrotation Xrotation Yrotation
              End Site
              {
                OFFSET 13.419 -0.6 1.50291
              }
            }
          }
        }
      }
      JOINT RightShoulder
      {
        OFFSET -8.99 -0.362252 -0.22
        CHANNELS 3 Zrotation Xrotation Yrotation
        JOINT RightArm
        {
          OFFSET -10.2827 -0.00338 0.322123
          CHANNELS 3 Zrotation Xrotation Yrotation
          JOINT RightForeArm
          {
            OFFSET -26.364 0.099144 -1.42434
            CHANNELS 3 Zrotation Xrotation Yrotation
            JOINT RightHand
            {
              OFFSET -22.0324 0.085362 1.02216
              CHANNELS 3 Zrotation Xrotation Yrotation
              End Site
              {
                OFFSET -13.3284 -0.6 1.50291
              }
            }
          }
        }
      }
    }
  }
  JOINT LeftUpLeg
  {
    OFFSET 8.9458 -8.66707 0.101652
    CHANNELS 3 Zrotation Xrotation Yrotation
    JOINT LeftLeg
    {
      OFFSET 0 -44.4227 1.3727
      CHANNELS 3 Zrotation Xrotation Yrotation
      JOINT LeftFoot
      {
        OFFSET -0.253549 -42.0924 -1.46059
        CHANNELS 3 Zrotation Xrotation Yrotation
        JOINT LeftToes
        {
          OFFSET -0.04 -4.41509 8.4991
          CHANNELS 3 Zrotation Xrotation Yrotation
          End Site
          {
            OFFSET 0.08 -0.047448 9.77979
          }
        }
      }
    }
  }
}
MOTION
Frames:	17
Frame Time:	0.0333333
-5.2871 105.721 35.5477 0.742272 6.04231 -178.959 -9.25253 10.2396 -8.51475 1.3136 9.47301 -13.3169 12.7911 -9.17822 -0.0115087 0.0462048 0.000530889 0.662642 1.59199 -7.19638 0.761391 -1.52194 11.0384 0.928072 -2.42688 2.44569 -1.51359 -25.6176 1.60969 -1.556 -44.8283 -25.68 -19.5944 -8.51642 49.6534 0.783925 16.7003 8.66013 -3.56695 36.5431 4.99765 7.67031 24.4369 -39.4184 -3.52472 3.19358 26.376 4.8208 -35.5245 8.20685 0.0713538 12.7021 6.09252 8.67479 -2.58122 12.5792 -1.45585 -10.6896 -8.5584 -0.0463988 -1.36808e-009 8.75245e-006 -1.46835e-008 
-5.2871 105.727 35.5835 0.766481 6.03496 -179.03 -9.23231 10.1848 -8.50032 1.30116 9.49029 -13.284 12.6614 -9.17281 -0.0122517 0.0462048 0.000530889 0.662642 1.66263 -7.23126 0.768989 -1.54612 11.1018 0.941499 -2.52174 2.34189 -1.44769 -25.5873 1.59826 -1.52471 -44.9144 -25.6434 -19.7222 -8.51394 49.6764 0.775808 16.7565 8.59224 -4.02765 36.5474 4.99766 7.67004 24.4546 -39.4393 -3.40712 3.18866 26.4121 4.84822 -35.5963 8.30127 -0.246284 12.7193 6.1037 8.68539 -2.5948 12.5394 -1.39788 -10.7188 -8.54863 -0.0463976 -1.36808e-009 8.75245e-006 -1.46835e-008 
-5.28661 105.738 35.6386 0.797206 6.01501 -179.136 -9.19483 10.1127 -8.4653 1.26751 9.47275 -13.2629 12.4918 -9.16084 -0.0158277 0.0462048 0.000530889 0.662642 1.73698 -7.27709 0.781506 -1.55514 11.1587 0.95388 -2.62072 2.20125 -1.29459 -25.5687 1.58549 -1.48737 -44.9975 -25.5014 -19.8796 -8.54076 49.5676 0.697933 16.8425 8.54865 -4.2922 36.5731 4.99771 7.66537 24.4344 -39.4553 -3.27047 3.18681 26.4491 4.92985 -35.6721 8.41031 -0.610892 12.7376 6.10931 8.70192 -2.61585 12.4793 -1.30711 -10.7098 -8.51703 -0.0452508 -1.36808e-009 8.75245e-006 -1.46835e-008 
-5.28166 105.75 35.6892 0.814531 5.99382 -179.219 -9.15815 10.0834 -8.4282 1.23111 9.3789 -13.2556 12.3992 -9.12321 -0.0214183 0.0462048 0.000530889 0.662642 1.74776 -7.28421 0.791742 -1.51322 11.1247 0.951007 -2.65425 2.1508 -1.05661 -25.5873 1.57701 -1.45792 -45.0254 -25.3249 -19.9542 -8.57052 49.4126 0.557928 16.9979 8.55294 -4.15425 36.6342 4.99933 7.6532 24.3596 -39.4202 -3.17762 3.22281 26.4599 4.91795 -35.7047 8.40547 -0.599884 12.7455 6.11308 8.70725 -2.63479 12.4071 -1.22551 -10.6806 -8.45882 -0.0400588 -1.36808e-009 8.75245e-006 -1.46835e-008 
-5.26561 105.763 35.7381 0.812263 5.97368 -179.265 -9.14101 10.0775 -8.41291 1.21573 9.26022 -13.2312 12.3698 -9.07408 -0.0262314 0.0462048 0.000530889 0.662642 1.66079 -7.27899 0.783652 -1.36782 11.0497 0.911014 -2.68311 2.19833 -0.750831 -25.6677 1.55849 -1.38787 -45.0637 -25.2526 -20.0087 -8.55432 49.4361 0.455267 17.1165 8.55514 -4.03269 36.6822 5.00788 7.66118 24.3245 -39.3809 -3.07318 3.27647 26.442 4.75529 -35.632 8.32818 -0.339026 12.7384 6.12367 8.68806 -2.64927 12.2973 -1.15241 -10.6886 -8.37628 -0.0328166 -1.36808e-009 8.75245e-006 -1.46835e-008 
-5.24262 105.773 35.7941 0.792301 5.95009 -179.276 -9.1439 10.0446 -8.41432 1.21573 9.20095 -13.2078 12.3472 -9.05698 -0.0287243 0.0462048 0.000530889 0.662642 1.47325 -7.33327 0.744483 -1.092 11.0603 0.81751 -2.77059 2.23435 -0.404404 -25.8251 1.5214 -1.24904 -45.173 -25.2918 -20.1388 -8.49705 49.5923 0.436604 17.0709 8.55532 -4.09742 36.6661 5.02506 7.70538 24.3949 -39.4233 -2.97019 3.26973 26.4117 4.69394 -35.4255 8.28802 -0.176312 12.7182 6.12894 8.65511 -2.65576 12.1619 -1.0909 -10.7197 -8.2891 -0.0252903 -1.36808e-009 8.75245e-006 -1.46835e-008 
-5.21696 105.778 35.8472 0.769176 5.93321 -179.254 -9.14347 10.0024 -8.40955 1.2132 9.19906 -13.2342 12.3159 -9.07352 -0.0301736 0.0462048 0.000530889 0.662642 1.25466 -7.46848 0.688763 -0.766838 11.2114 0.697391 -2.86916 2.16476 -0.0785877 -25.9907 1.48566 -1.11442 -45.3562 -25.3215 -20.2928 -8.44136 49.5855 0.442443 16.9751 8.55297 -4.18039 36.636 5.04275 7.75434 24.4856 -39.5146 -2.97856 3.19019 26.3917 4.96786 -35.2195 8.2834 -0.127795 12.7044 6.11684 8.63613 -2.66041 12.0646 -1.07871 -10.7247 -8.22159 -0.019332 -1.36808e-009 8.75245e-006 -1.46835e-008 
-5.19019 105.782 35.8797 0.76482 5.94459 -179.205 -9.11811 10.0232 -8.40986 1.22041 9.17206 -13.3036 12.2745 -9.07738 -0.0313562 0.0462048 0.000530889 0.662642 1.10662 -7.64056 0.648012 -0.515388 11.4499 0.602799 -2.88559 1.99849 0.110658 -26.0619 1.47756 -1.07954 -45.5909 -25.2787 -20.3433 -8.39626 49.3099 0.406183 17.0018 8.54642 -4.20972 36.6863 5.0499 7.75825 24.5011 -39.5488 -3.08816 3.1213 26.3947 5.37093 -35.1927 8.27106 -0.082978 12.7229 6.10673 8.64379 -2.66011 12.0359 -1.14093 -10.7113 -8.17711 -0.0153275 -1.36808e-009 8.75245e-006 -1.46835e-008 
-5.16088 105.788 35.8938 0.784267 5.98969 -179.142 -9.0771 10.1252 -8.4239 1.26228 9.08622 -13.3621 12.209 -9.05255 -0.0322935 0.0462048 0.000530889 0.662642 1.04196 -7.79386 0.629735 -0.345466 11.6894 0.543732 -2.8137 1.80307 0.0694896 -26.0673 1.49232 -1.12454 -45.8153 -25.2122 -20.2754 -8.33595 49.0102 0.309479 17.0559 8.54497 -4.18752 36.8064 5.04375 7.71534 24.5137 -39.5503 -3.11385 3.10123 26.4355 5.48599 -35.3096 8.29827 -0.190835 12.7755 6.12941 8.66593 -2.65149 12.0282 -1.25007 -10.7236 -8.14185 -0.0122366 -1.36808e-009 8.75245e-006 -1.46835e-008 
-5.12751 105.792 35.9098 0.806371 6.04664 -179.069 -9.03748 10.2386 -8.45193 1.32157 9.00769 -13.4035 12.1365 -9.03678 -0.0330117 0.0462048 0.000530889 0.662642 0.983593 -7.88938 0.611104 -0.175578 11.8649 0.485512 -2.72666 1.62631 -0.163364 -26.1409 1.50242 -1.14563 -45.9309 -25.1555 -20.1766 -8.25827 48.9219 0.147462 16.9662 8.57801 -4.00481 36.9048 5.03897 7.67198 24.6349 -39.6363 -2.97837 3.0699 26.5222 5.27087 -35.3553 8.38769 -0.490303 12.8364 6.17528 8.68945 -2.64381 11.994 -1.36656 -10.7558 -8.10927 -0.00946321 -1.36808e-009 8.75245e-006 -1.46835e-008 
-5.09239 105.794 35.9377 0.810303 6.08402 -178.98 -9.00263 10.2904 -8.46106 1.35034 8.99937 -13.4761 12.1034 -9.05095 -0.0335355 0.0462048 0.000530889 0.662642 0.915836 -7.92763 0.581107 -0.0255005 11.9618 0.424846 -2.65653 1.47469 -0.430166 -26.2792 1.49778 -1.11222 -45.9296 -25.0724 -20.0929 -8.19516 48.9896 -0.0618771 16.8559 8.62234 -3.75136 36.9722 5.03809 7.65151 24.7924 -39.7767 -2.86175 3.0015 26.6076 5.08578 -35.2336 8.41661 -0.566147 12.8819 6.19679 8.71447 -2.64829 11.9474 -1.47862 -10.7615 -8.07741 -0.00661798 -1.36808e-009 8.75245e-006 -1.46835e-008 
-5.06115 105.798 35.9663 0.799188 6.08899 -178.89 -8.9684 10.2824 -8.44143 1.33823 9.03296 -13.589 12.1156 -9.06746 -0.0338854 0.0462048 0.000530889 0.662642 0.926656 -7.97642 0.557453 -0.0241453 12.0485 0.405597 -2.55842 1.33045 -0.586629 -26.3009 1.49261 -1.09337 -45.9446 -24.9487 -20.0127 -8.16294 49.0491 -0.249899 16.9495 8.61009 -3.78446 37.084 5.03886 7.62939 24.8291 -39.8069 -2.92407 2.96929 26.6043 5.14672 -35.0661 8.30318 -0.167558 12.9082 6.17268 8.73736 -2.65986 11.9174 -1.57814 -10.7341 -8.0369 -0.00299324 -1.36808e-009 8.75245e-006 -1.46835e-008 
-5.03708 105.802 35.9816 0.785227 6.08169 -178.818 -8.94285 10.275 -8.4217 1.32256 9.04233 -13.6885 12.1323 -9.06588 -0.0340823 0.0462048 0.000530889 0.662642 1.04716 -8.112 0.550535 -0.189616 12.2236 0.438185 -2.40595 1.17554 -0.589911 -26.1314 1.49494 -1.12384 -46.0677 -24.8323 -19.9544 -8.14529 49.0604 -0.358478 17.1422 8.54614 -4.12784 37.2439 5.04135 7.59176 24.765 -39.7099 -3.05695 3.01277 26.491 5.28114 -34.9816 8.17455 0.270128 12.9197 6.14286 8.74392 -2.66385 11.8927 -1.64552 -10.712 -7.98502 0.00151332 -1.36808e-009 8.75245e-006 -1.46835e-008 
-5.01894 105.805 35.986 0.769773 6.0968 -178.766 -8.93669 10.3114 -8.42421 1.32723 9.01985 -13.7389 12.1326 -9.0641 -0.0341507 0.0462048 0.000530889 0.662642 1.16737 -8.30638 0.542588 -0.347044 12.4897 0.465004 -2.25857 1.01067 -0.48918 -25.9472 1.49325 -1.14405 -46.2195 -24.7668 -19.9713 -8.12916 49.0673 -0.398969 17.1217 8.51968 -4.32721 37.3546 5.04536 7.56931 24.753 -39.6542 -3.07077 3.05767 26.3594 5.278 -34.9824 8.16904 0.288447 12.9234 6.15511 8.73154 -2.65905 11.8577 -1.68219 -10.7114 -7.94128 0.00510759 -1.36808e-009 8.75245e-006 -1.46835e-008 
-5.00548 105.806 35.9933 0.750891 6.14321 -178.719 -8.94319 10.3754 -8.43739 1.33681 9.00809 -13.7643 12.13 -9.0752 -0.0341147 0.0462048 0.000530889 0.662642 1.17924 -8.44979 0.515438 -0.332495 12.7385 0.432135 -2.19597 0.862868 -0.380844 -25.9319 1.47805 -1.09896 -46.3018 -24.7501 -20.0716 -8.12385 49.0654 -0.398439 16.8393 8.56207 -4.19567 37.3516 5.05287 7.58712 24.8297 -39.712 -2.97082 3.04539 26.2987 5.18207 -35.0152 8.22575 0.0957436 12.9206 6.20038 8.71814 -2.65631 11.8298 -1.71814 -10.7093 -7.92298 0.00739903 -1.36808e-009 8.75245e-006 -1.46835e-008 
-4.99878 105.807 36.0106 0.737152 6.19154 -178.668 -8.94532 10.4213 -8.44382 1.3368 9.02593 -13.7992 12.1275 -9.08518 -0.0339959 0.0462048 0.000530889 0.662642 1.11286 -8.50505 0.473249 -0.172285 12.8899 0.349939 -2.21844 0.774038 -0.342641 -26.0425 1.45642 -1.01667 -46.3511 -24.7612 -20.1953 -8.13492 49.0181 -0.351884 16.5729 8.59474 -4.12152 37.2701 5.05972 7.62427 24.8904 -39.7581 -2.89328 3.02655 26.2941 5.139 -35.0693 8.21779 0.112668 12.9182 6.22568 8.71502 -2.64886 11.8334 -1.77057 -10.694 -7.92221 0.00885392 -1.36808e-009 8.75245e-006 -1.46835e-008 
-4.99974 105.808 36.0307 0.734755 6.21095 -178.616 -8.93902 10.4316 -8.44473 1.33737 9.04763 -13.845 12.1248 -9.08735 -0.0338164 0.0462048 0.000530889 0.662642 1.06319 -8.55131 0.427985 -0.0094324 12.9744 0.262636 -2.25018 0.773779 -0.361688 -26.1312 1.4407 -0.956067 -46.4279 -24.7778 -20.2747 -8.15513 48.936 -0.266399 16.5592 8.56227 -4.36781 37.1696 5.05974 7.65091 24.8873 -39.7038 -2.88264 3.05589 26.2852 5.15845 -35.1654 8.15673 0.296494 12.9212 6.20534 8.71352 -2.63743 11.8588 -1.82698 -10.6822 -7.92138 0.00994074 -1.36808e-009 8.75245e-006 -1.46835e-008 
